<svg xmlns="http://www.w3.org/2000/svg" viewBox="-215 273 504.8 504.8" enable-background="new -215 273 504.8 504.8"><path fill="#3392C4" d="M282 459.7c0 29.6-24.1 53.7-53.7 53.7h-389.7c-29.6 0-53.7-24.1-53.7-53.7v-133c0-29.6 24.1-53.7 53.7-53.7h389.7c29.6 0 53.7 24.1 53.7 53.7v133zm-31.1-133.8c0-12.4-10.1-22.6-22.6-22.6h-389.7c-12.4 0-22.6 10.1-22.6 22.6v133c0 12.4 10.1 22.6 22.6 22.6h389.7c12.4 0 22.6-10.1 22.6-22.6v-133zm-404.5 70.8c-4.7 0-7.8-3.1-7.8-7.8v-14c0-20.2 9.3-40.4 31.1-40.4h52.1c4.7 0 7.8 3.1 7.8 7.8s-3.1 7.8-7.8 7.8h-52.1c-11.7 0-15.6 12.4-15.6 24.9v14c.1 4.6-3 7.7-7.7 7.7zm-6.2 26.4c-2.3 0-3.9-.8-5.4-2.3-1.6-1.6-2.3-3.9-2.3-5.4 0-2.3.8-3.9 2.3-5.4 3.1-3.1 7.8-3.1 10.9 0 1.6 1.6 2.3 3.9 2.3 5.4 0 2.3-.8 3.9-2.3 5.4-1.6 1.5-3.1 2.3-5.5 2.3zm278.5 301c0 29.6-24.1 53.7-53.7 53.7h-226.3c-29.6 0-53.7-24.1-53.7-53.7v-133c0-29.6 24.1-53.7 53.7-53.7H65c29.6 0 53.7 24.1 53.7 53.7v133zM87.6 590.3c0-12.4-10.1-22.6-22.6-22.6h-226.3c-12.4 0-22.6 10.1-22.6 22.6v133c0 12.4 10.1 22.6 22.6 22.6H65c12.4 0 22.6-10.1 22.6-22.6v-133zm202.2 133.8c0 29.6-24.1 53.7-53.7 53.7h-39.7c-29.6 0-53.7-24.1-53.7-53.7v-133c0-29.6 24.1-53.7 53.7-53.7h39.7c29.6 0 53.7 24.1 53.7 53.7v133zm-31.1-133.8c0-12.4-10.1-22.6-22.6-22.6h-39.7c-12.4 0-22.6 10.1-22.6 22.6v133c0 12.4 10.1 22.6 22.6 22.6h39.7c12.4 0 22.6-10.1 22.6-22.6v-133z"/></svg>