<svg xmlns="http://www.w3.org/2000/svg" viewBox="-157.3 265.2 388.8 519.6" enable-background="new -157.3 265.2 388.8 519.6"><path fill="#3392C4" d="M-132.6 784.8c-6.2 0-11.7-3.1-14.8-7.8-6.2-8.6-2.3-19.4-.8-24.1l50.6-187.4c0-.8 0-.8.8-1.6v-.8h-30.3c-11.7 0-21-4.7-26.4-13.2-5.4-8.6-4.7-19.4.8-29.6l126-227.1c8.6-16.3 29.6-28 47.4-28h182.8c12.4 0 21.8 5.4 25.7 14 4.7 9.3 2.3 19.4-5.4 29.6l-130 165.6H149c18.7 0 24.1 10.1 25.7 14.8 1.6 4.7 3.9 15.6-10.1 27.2l-279.2 259.8-.8.8c-5.5 5.4-11.7 7.8-17.2 7.8zm64.6-210l-42 155.6 241.9-224.8H86c-12.4 0-21.8-5.4-25.7-14-4.7-9.3-2.3-19.4 5.4-29.6l129.9-165.7H21.4c-7 0-17.1 6.2-20.2 12.4l-124.4 224H-96c10.9 0 21 4.7 26.4 13.2 3.9 7.9 5.5 18 1.6 28.9zm31.1-123.7c-1.6 0-2.3 0-3.9-.8-3.9-2.3-5.4-7-3.1-10.9l7-12.4c2.3-3.9 7-5.4 10.9-3.1 3.9 2.3 5.4 7 3.1 10.9l-7 12.4c-1.5 2.4-4.7 3.9-7 3.9zm21.8-39.7c-1.6 0-2.3 0-3.9-.8-3.9-2.3-5.4-7-3.1-10.9l32.7-59.1c7-12.4 22.6-21.8 36.6-21.8h20.2c4.7 0 7.8 3.1 7.8 7.8 0 4.7-3.1 7.8-7.8 7.8H47.1c-8.6 0-18.7 6.2-23.3 14l-32.7 59.1c-.8 2.4-3.1 3.9-6.2 3.9z"/></svg>