<svg xmlns="http://www.w3.org/2000/svg" viewBox="262.6 27.2 395.7 505.6" enable-background="new 262.6 27.2 395.7 505.6"><path fill="#3392c4" d="M452.4 27.2c-105 0-190.6 83.2-189.8 186.7V476c0 26.4 22.6 56.8 51.3 56.8h2.3c28 0 55.2-28.8 55.2-56.8v-23.3c0-10.1 3.9-13.2 14.8-13.2h2.3c7.8 0 21.8 2.3 21.8 13.2V476c0 27.2 19.4 56.8 48.2 56.8h2.3c29.6 0 49.8-30.3 49.8-56.8v-23.3c0-12.4 14-13.2 20.2-13.2h2.3c10.1 0 24.1 3.9 24.1 13.2V476c0 27.2 16.3 56.8 45.9 56.8h2.3c27.2 0 52.9-28 52.9-56.8V213.9c0-103.4-85.6-186.7-192.1-186.7h-13.8zM292.2 476V213.9c0-87.9 70-155.6 159.4-155.6h14c88.7 0 161 69.2 161 155.6V476c0 11.7-11.7 25.7-21.8 25.7h-2.3c-9.3 0-14.8-15.6-14.8-25.7v-23.3c0-28.8-28-44.3-55.2-44.3h-2.3c-30.3 0-51.3 17.9-51.3 44.3V476c0 12.4-9.3 25.7-18.7 25.7h-2.3c-9.3 0-17.1-14-17.1-25.7v-23.3c0-25.7-21.8-44.3-52.9-44.3h-2.3c-28 0-45.9 16.3-45.9 44.3V476c0 10.9-13.2 25.7-24.1 25.7h-2.3c-10.1 0-20.2-14-20.2-25.7h-.9zM470.3 80.9c0-3.9-3.1-7.8-7.8-7.8h-5.4c-4.7.8-7.8 3.9-7.8 8.6 0 3.9 3.9 7.8 7.8 7.8h4.7c4.6-.1 7.8-3.9 8.5-8.6zm-47.4-2.3c-63.8 16.3-106.6 70-106.6 134.6v94.1c0 4.7 3.1 7.8 7.8 7.8s7.8-3.1 7.8-7.8v-94.1c0-56.8 38.1-105 94.9-119.8 3.9-.8 6.2-5.4 5.4-9.3-.8-4-5.4-6.3-9.3-5.5zM510 228.7c0 24.9 20.2 45.1 45.1 45.1 24.9 0 45.1-20.2 45.1-45.1s-20.2-45.1-45.1-45.1c-24.9 0-45.1 20.2-45.1 45.1zm15.6.7c0-16.3 13.2-29.6 29.6-29.6s29.6 13.2 29.6 29.6-13.4 29.6-29.7 29.6-29.5-13.2-29.5-29.6zm-129.9-.7c0 24.9 20.2 45.1 45.1 45.1s45.1-20.2 45.1-45.1-20.2-45.1-45.1-45.1-45.1 20.2-45.1 45.1zm15.5.7c0-16.3 13.2-29.6 29.6-29.6 16.3 0 29.6 13.2 29.6 29.6S457.1 259 440.8 259c-16.4 0-29.6-13.2-29.6-29.6z"/></svg>
