<svg xmlns="http://www.w3.org/2000/svg" viewBox="-197 339 420 420" enable-background="new -197 339 420 420"><path fill="#61EBC8" d="M13 759c-116.7 0-210-93.3-210-210s93.3-210 210-210 210 93.3 210 210-93.3 210-210 210zm0-373.3c-91 0-163.3 72.3-163.3 163.3S-78 712.3 13 712.3 176.3 640 176.3 549 104 385.7 13 385.7zM50.3 563c4.7 0 7 2.3 9.3 7 2.3 4.7 4.7 9.3 4.7 14 0 4.7-2.3 11.7-4.7 14-2.3 4.7-7 7-9.3 7-4.7 0-7-2.3-11.7-7-2.3-4.7-4.7-9.3-4.7-14 0-4.7 2.3-11.7 4.7-14 2.4-4.7 7.1-7 11.7-7m51.4-53.7c11.7 11.7 16.3 28 16.3 44.3 0 11.7-2.3 21-4.7 30.3-2.3 9.3-7 16.3-9.3 21-4.7 4.7-9.3 11.7-14 14-4.7 4.7-11.7 7-16.3 9.3-4.7 2.3-9.3 4.7-16.3 4.7s-11.7 2.3-14 2.3h-60.7c-2.3 0-7 0-14-2.3-7 0-11.7-2.3-16.3-4.7-4.7-2.3-9.3-4.7-16.3-9.3-4.7-4.7-11.7-9.3-14-14-4.7-4.7-7-14-9.3-21-2.3-9.3-4.7-18.7-4.7-30.3 0-16.3 4.7-32.7 16.3-44.3-2.3 0-2.3-7 0-18.7 0-11.7 2.3-23.3 7-32.7 14 2.3 30.3 9.3 51.3 23.3 7-2.3 16.3-2.3 28-2.3s23.3 0 28 2.3c9.3-7 18.7-11.7 28-16.3 9.3-4.7 14-7 18.7-7l7-2.3c4.7 9.3 7 21 7 32.7 2.3 16.4 2.3 21 2.3 21M13 628.3c25.7 0 44.3-2.3 58.3-9.3 14-7 18.7-18.7 18.7-37.3 0-11.7-4.7-21-11.7-28-4.7-4.7-9.3-7-14-7H38.7C27 546.7 20 549 15.3 549h-39.7c-4.7 0-9.3 0-14 2.3s-9.3 2.3-11.7 7c-7 7-11.7 16.3-11.7 28 0 18.7 7 30.3 18.7 37.3 11.8.1 30.4 4.7 56.1 4.7M-22 563c4.7 0 7 2.3 9.3 7 2.3 4.7 4.7 9.3 4.7 14s-2.3 11.7-4.7 14c-2.3 4.7-7 7-9.3 7-4.7 0-7-2.3-11.7-7-2.3-4.7-4.7-9.3-4.7-14s2.3-11.7 4.7-14c2.4-4.7 7-7 11.7-7"/></svg>