<svg xmlns="http://www.w3.org/2000/svg" viewBox="-218.7 272.2 512.2 504.8" enable-background="new -218.7 272.2 512.2 504.8"><path fill="#3392C4" d="M282.8 686s.8.8 0 0l-154-222.4V287c0-8.6-3.9-14.8-12.4-14.8H-31.4c-8.6 0-10.9 6.2-10.9 14.8v171.9L-204.9 686l-1.6 2.3c-13.2 22.6-16.3 43.6-6.2 61.4 10.1 17.9 30.3 27.2 56.8 27.2h385c26.4 0 47.4-10.1 57.6-28 10.1-16.2 9.3-39.6-3.9-62.9zM-16.7 472.9c1.6-2.3 5.4-5.4 5.4-9.3V303.3h109V469c0 3.1-1.6 6.2 0 9.3l71.6 103.4c-24.1 9.3-52.9 15.6-112.8-20.2-43.6-25.7-97.2-15.6-133.8-3.1l60.6-85.5zm275.4 261.3c-4.7 7.8-15.6 12.4-30.3 12.4h-385c-14.8 0-25.7-4.7-30.3-11.7-3.9-7-2.3-18.7 4.7-31.1L-94.4 581c30.3-13.2 94.9-35 142.3-6.2 38.1 22.6 65.3 29.6 86.3 29.6 17.9 0 31.1-4.7 43.6-10.1L254 703.9c7.8 12.4 9.3 23.3 4.7 30.3zm-330.6-92.5c-23.3 0-42.8 19.4-42.8 42.8 0 23.3 19.4 42.8 42.8 42.8s42.8-19.4 42.8-42.8c0-24.2-19.5-42.8-42.8-42.8zm0 69.2c-14.8 0-27.2-12.4-27.2-27.2 0-14.8 12.4-27.2 27.2-27.2s27.2 12.4 27.2 27.2c0 14.7-12.4 27.2-27.2 27.2zm224-57.6c-20.2 0-36.6 16.3-36.6 36.6 0 20.2 16.3 36.6 36.6 36.6s36.6-16.3 36.6-36.6c0-20.2-16.4-36.6-36.6-36.6zm0 57.6c-11.7 0-21-9.3-21-21s9.3-21 21-21 21 9.3 21 21-9.3 21-21 21zM30 598.9c-17.1 0-31.1 14-31.1 31.1s14 31.1 31.1 31.1 31.1-14 31.1-31.1-14-31.1-31.1-31.1zm0 46.7c-8.6 0-15.6-7-15.6-15.6s7-15.6 15.6-15.6 15.6 7 15.6 15.6-7 15.6-15.6 15.6zm44.3-226.4c4.7 0 7.8-3.1 7.8-7.8v-85.6c0-4.7-3.1-7.8-7.8-7.8s-7.8 3.1-7.8 7.8v85.6c.1 4.7 3.9 7.8 7.8 7.8zm0 38.9c4.7 0 7.8-3.1 7.8-7.8v-7.8c0-4.7-3.1-7.8-7.8-7.8s-7.8 3.1-7.8 7.8v7.8c.1 4.7 3.9 7.8 7.8 7.8z"/></svg>