<svg xmlns="http://www.w3.org/2000/svg" viewBox="0 0 341.7 399.9" enable-background="new 0 0 341.7 399.9"><path fill="#73BEE3" d="M324.5 391h-35.6c-5.2 0-10.1-1.6-13.3-5.4L243.5 349l-35-40.6-9.7-11.2-70.4-81.9L94 175.1c-21.2-25.2-41.3-50.4-41.3-83.6 0-45 29.7-77.4 70.9-87.5C134 1.4 144 0 153.5 0c47.9 0 100.4 28 101.4 89h-58.1v.7c0-22.9-13.5-40.4-34.9-43.5-2.3-.2-4.7-.3-7.3-.3-4.4 0-8.5.5-12.5 1.6-17.9 4.7-30.9 19.7-30.9 40.7 0 13.2 6.1 24.7 14.1 35.5 7.3 9.9 16.1 19.1 23.2 28.3l134.1 151.1 55.3 62.1c9.1 10.5 1.1 25.8-13.4 25.8z"/><path opacity=".1" d="M196.4 84.3c-.5-12.2-6-22-13.3-28.5-5.3-19.3-17.4-39.3-40.5-54.9 2.3-.1 7.2.4 10.9.8C205.8 8.1 251 44.3 243.6 105"/><path fill="#7ECEFD" d="M311.6 228.9C302.5 297.5 244.1 400 128.9 400 53.9 400 0 358 0 286.2c0-54.1 42.2-84.2 95.4-110.6 11.7-5.8 33.1-13.2 52.1-24.8s48.4-29.5 49.1-61c.1-26.9-11-66.9-54.4-89 2.3-.4 7.2-.5 10.9-.5 52.7 0 102 30.5 102 91.6 0 45-34.4 77.2-73.9 97l-52.7 26.3c-24.1 13.9-63 26.3-63 71.8 0 41.3 28.1 59 65.9 59 77.2 0 120.2-83 124.1-122.6.8-7.8 8.5-13 17-13h22.4c10.5 0 18.1 8.5 16.7 18.5z"/></svg>