<svg xmlns="http://www.w3.org/2000/svg" viewBox="-443 245 72 72" enable-background="new -443 245 72 72"><path d="M-424.7 279.5l-3.1 3.1c-5.8 5.6-6.8 11.4-3 16.9.2.3.5.4.8.4.2 0 .4-.1.6-.2.5-.3.6-.9.3-1.4-3.2-4.6-2.3-9.4 2.8-14.3l3.1-3.1c.4-.4.4-1 0-1.4-.5-.4-1.2-.4-1.5 0zm-2.8 21.2c-.4-.4-1-.4-1.4 0-.4.4-.4 1 0 1.4l.5.5c.2.2.5.3.7.3.3 0 .5-.1.7-.3.4-.4.4-1 0-1.4l-.5-.5zm25.1-25.8l-3.5 3.5c-.4.4-.4 1 0 1.4.2.2.5.3.7.3.3 0 .5-.1.7-.3l3.5-3.5c.4-.4.4-1 0-1.4-.4-.4-1-.4-1.4 0zm26.3-26.8c-1.1-.3-2.2.3-2.5 1.4 0 .1-1.6 5.3-6.2 7.6-4.4 2.1-6.5 4.7-7.5 6.9-3.6-3.1-8.1-4.8-13-4.8-5.4 0-10.4 2.1-14.2 5.9l-14.1 14.1c-7.8 7.8-7.8 20.5 0 28.3l.7.7c3.8 3.8 8.8 5.9 14.2 5.9s10.4-2.1 14.2-5.9l14.1-14.1c7.4-7.4 7.8-19.1 1.2-27 .2-1.1 1.2-4 6.1-6.4 6.2-3.1 8.2-9.8 8.3-10.1.4-1.1-.3-2.2-1.3-2.5zm-31.2 57.2c-3 3-7.1 4.7-11.3 4.7s-8.3-1.7-11.3-4.7l-.7-.7c-6.3-6.3-6.3-16.4 0-22.7l10.6-10.6c2.5 4.7 9.4 15.5 23.4 23.3l-10.7 10.7zm14.1-14.1l-2 2c-14.3-7.8-21.3-19.2-23.4-23.3l2-2c3-3 7.1-4.7 11.3-4.7 4.3 0 8.3 1.7 11.3 4.7l.7.7c6.3 6.2 6.3 16.4.1 22.6z" fill="#3392C4"/></svg>